<svg width="42" height="41" viewBox="0 0 42 41" fill="none" xmlns="http://www.w3.org/2000/svg">
<circle cx="21.4228" cy="20.5" r="20" fill="white" stroke="#D7DEEF"/>
<g clip-path="url(#clip0_569_506)">
<path d="M30.6825 20.7128C30.6825 20.09 30.6273 19.4986 30.5327 18.923H21.623V22.479H26.7244C26.4957 23.6459 25.8255 24.6315 24.8321 25.3017V27.6671H27.8755C29.6575 26.0192 30.6825 23.5907 30.6825 20.7128Z" fill="#4285F4"/>
<path d="M21.6231 29.9615C24.1777 29.9615 26.3145 29.11 27.8756 27.6671L24.8322 25.3017C23.9806 25.8694 22.9004 26.2163 21.6231 26.2163C19.1552 26.2163 17.0658 24.5527 16.3168 22.3055H13.1787V24.7419C14.732 27.8327 17.9252 29.9615 21.6231 29.9615Z" fill="#34A853"/>
<path d="M16.3163 22.3056C16.1192 21.7379 16.0167 21.1307 16.0167 20.5C16.0167 19.8692 16.1271 19.2621 16.3163 18.6944V16.2581H13.1782C12.5317 17.5354 12.1611 18.9704 12.1611 20.5C12.1611 22.0296 12.5317 23.4646 13.1782 24.7419L16.3163 22.3056Z" fill="#FBBC05"/>
<path d="M21.6231 14.7836C23.0187 14.7836 24.2645 15.2646 25.2501 16.2029L27.9466 13.5063C26.3145 11.9767 24.1777 11.0385 21.6231 11.0385C17.9252 11.0385 14.732 13.1673 13.1787 16.2581L16.3168 18.6944C17.0658 16.4473 19.1552 14.7836 21.6231 14.7836Z" fill="#EA4335"/>
</g>
<defs>
<clipPath id="clip0_569_506">
<rect width="18.9231" height="18.9231" fill="white" transform="translate(11.96 11.0385)"/>
</clipPath>
</defs>
</svg>
