<svg width="27" height="27" viewBox="0 0 27 27" fill="none" xmlns="http://www.w3.org/2000/svg">
<path fill-rule="evenodd" clip-rule="evenodd" d="M5.54256 0.0601325C4.08267 0.247661 2.99833 0.740447 2.08555 1.63123C1.30379 2.39409 0.765362 3.34698 0.512276 4.41559C0.307528 5.27993 0.308228 5.25001 0.308228 13.1507C0.308228 20.9574 0.309297 21.0067 0.495944 21.8242C0.979612 23.9427 2.51898 25.5401 4.58086 26.0631C5.55725 26.3107 5.34188 26.3049 13.473 26.3049C21.3 26.3049 21.2865 26.3052 22.1462 26.1221C23.2017 25.8974 24.1553 25.3764 24.9312 24.6006C25.7876 23.7445 26.2854 22.7568 26.526 21.4371L26.6165 20.9405V13.1507V5.36104L26.5265 4.86776C26.477 4.59645 26.3872 4.21725 26.327 4.02507C25.707 2.04706 24.1862 0.647711 22.1529 0.184192C21.3322 -0.00288396 21.2965 -0.00366499 13.4122 0.00122669C7.50718 0.00492629 5.87735 0.0170939 5.54256 0.0601325ZM16.702 3.57372C17.3129 3.59637 17.9701 3.63394 18.1625 3.65725C20.5151 3.94245 22.1436 5.24923 22.7494 7.33802C23.0407 8.34238 23.0767 8.9827 23.0767 13.1507C23.0767 16.6815 23.0519 17.4538 22.9123 18.2574C22.7066 19.442 22.237 20.3862 21.4753 21.1469C20.6225 21.9985 19.5727 22.4727 18.1625 22.6434C16.7706 22.8119 10.1561 22.8122 8.78281 22.6439C7.36381 22.47 6.32786 22.001 5.47053 21.1443C4.70683 20.3812 4.23834 19.4404 4.03293 18.2574C3.89429 17.4589 3.86903 16.6781 3.86858 13.1713C3.86801 9.05829 3.90322 8.39767 4.17589 7.40457C4.70962 5.4606 6.1812 4.14173 8.26479 3.73996C8.69745 3.65651 9.64023 3.5803 10.4901 3.56003C11.7864 3.52916 15.7335 3.53784 16.702 3.57372ZM9.64158 5.26222C8.14932 5.34369 7.40018 5.61282 6.68042 6.32602C5.92186 7.07765 5.66581 7.79698 5.57539 9.4306C5.52228 10.3903 5.52228 15.9112 5.57539 16.8709C5.66585 18.5054 5.92091 19.2211 6.68321 19.9802C7.02458 20.3201 7.13673 20.4034 7.47213 20.5665C7.94017 20.7939 8.46436 20.9335 9.13249 21.0084C9.84448 21.0883 17.1008 21.0883 17.8128 21.0084C18.48 20.9336 19.004 20.7942 19.476 20.5662C19.8219 20.399 19.9204 20.325 20.2865 19.9571C20.6479 19.5941 20.7287 19.4864 20.8938 19.1472C21.1089 18.7055 21.2561 18.1746 21.3312 17.5697C21.4016 17.0026 21.4364 10.6681 21.3753 9.52563C21.2826 7.78982 21.0499 7.11267 20.2827 6.34604C19.5285 5.59247 18.8412 5.35064 17.1957 5.25967C16.333 5.21199 10.5255 5.21396 9.64158 5.26222ZM19.0951 6.99363C19.1896 7.03729 19.3356 7.13972 19.4196 7.22128C19.8669 7.65532 19.8421 8.41604 19.367 8.83389C18.6746 9.44289 17.5985 9.01238 17.5151 8.09303C17.4382 7.24607 18.3178 6.63411 19.0951 6.99363ZM14.4641 8.34275C16.301 8.71378 17.7788 10.1234 18.2407 11.9452C18.382 12.5027 18.4273 13.0845 18.3697 13.6049C18.2726 14.4842 18.0267 15.1752 17.5639 15.8699C16.7413 17.1045 15.4514 17.8723 13.908 18.0458C12.5607 18.1974 11.0306 17.6455 10.0173 16.6426C9.17668 15.8106 8.70786 14.8132 8.57416 13.5723C8.48884 12.7807 8.65894 11.8384 9.02553 11.0716C9.79729 9.45719 11.2594 8.43799 13.0818 8.24413C13.378 8.21265 14.0612 8.26136 14.4641 8.34275ZM12.9995 9.92992C10.9811 10.2545 9.75064 12.2868 10.4041 14.2166C10.6876 15.054 11.4271 15.8348 12.2476 16.163C14.1355 16.9182 16.2466 15.7857 16.6576 13.7973C17.0013 12.1349 15.9642 10.4578 14.3145 10.008C14.0707 9.94155 13.2356 9.89194 12.9995 9.92992Z" fill="#C0C7D3"/>
</svg>
