<svg width="42" height="41" viewBox="0 0 42 41" fill="none" xmlns="http://www.w3.org/2000/svg">
<circle cx="20.9609" cy="20.5" r="20.5" fill="#FE7D00"/>
<path fill-rule="evenodd" clip-rule="evenodd" d="M20.4278 10.2577C20.1455 10.2921 19.5918 10.4231 19.31 10.522C17.6905 11.0905 16.4943 12.4646 16.1263 14.179C16.0371 14.5943 16.0361 15.6791 16.1244 16.0861C16.3396 17.0778 16.7771 17.8762 17.4987 18.5939C18.0678 19.16 18.6653 19.528 19.4232 19.7791C19.9494 19.9535 20.358 20.0158 20.9712 20.0152C21.5579 20.0147 21.9226 19.9594 22.4613 19.7893C23.6722 19.407 24.7399 18.5092 25.316 17.389C25.9679 16.1215 26.0563 14.8128 25.5812 13.4637C25.1853 12.3393 24.2838 11.3209 23.2071 10.7817C22.4935 10.4244 21.8663 10.2688 21.0764 10.2531C20.7871 10.2474 20.4952 10.2494 20.4278 10.2577ZM21.4076 13.1863C21.7856 13.2749 22.0644 13.4325 22.3593 13.724C22.9369 14.295 23.1145 15.0524 22.8478 15.8075C22.6437 16.3855 22.1549 16.8515 21.5497 17.045C21.2025 17.156 20.6693 17.1498 20.3293 17.0307C19.4905 16.7369 18.9552 15.9998 18.9552 15.1385C18.9552 14.5866 19.1415 14.1356 19.5337 13.7386C20.0315 13.2345 20.7325 13.0279 21.4076 13.1863ZM16.6536 20.1804C15.7208 20.3162 15.171 21.3637 15.5787 22.2284C15.7709 22.6359 16.2803 23.0046 17.242 23.4321C17.6442 23.6109 18.5435 23.9216 18.7916 23.9675L18.9261 23.9923L17.4906 25.4271C16.1919 26.7252 16.044 26.8847 15.9384 27.1008C15.7342 27.5191 15.7575 28.0647 15.9971 28.4715C16.2813 28.9542 16.9103 29.2464 17.4673 29.1546C17.9421 29.0763 17.9659 29.0573 19.5249 27.5122L20.9537 26.0963L22.3649 27.496C23.9062 29.0247 23.9541 29.063 24.438 29.1517C25.0458 29.2632 25.6907 28.9271 25.9761 28.3501C26.0714 28.1574 26.0894 28.0781 26.1018 27.7976C26.1139 27.5217 26.1037 27.4359 26.0372 27.2532C25.9938 27.134 25.9264 26.9893 25.8874 26.9317C25.8484 26.8742 25.1783 26.1893 24.3982 25.4098L22.98 23.9925L23.1151 23.9679C23.4393 23.9088 24.4456 23.5417 24.9331 23.3047C26.0258 22.7735 26.3355 22.4746 26.4599 21.8311C26.5131 21.556 26.4646 21.2571 26.3192 20.9627C25.9698 20.2553 25.0673 19.9588 24.3741 20.3235C23.0359 21.0277 22.4719 21.2137 21.4142 21.2992C20.1737 21.3995 18.9605 21.1153 17.7631 20.4441C17.3003 20.1846 17.0436 20.1236 16.6536 20.1804Z" fill="white"/>
</svg>
