<svg width="27" height="27" viewBox="0 0 27 27" fill="none" xmlns="http://www.w3.org/2000/svg">
<path fill-rule="evenodd" clip-rule="evenodd" d="M26.9247 13.1541C26.9247 20.4189 21.0354 26.3082 13.7706 26.3082C6.50576 26.3082 0.616455 20.4189 0.616455 13.1541C0.616455 5.8893 6.50576 0 13.7706 0C21.0354 0 26.9247 5.8893 26.9247 13.1541ZM9.40648 11.9573C8.09539 12.5324 6.74604 13.1243 5.51634 13.8006C4.86851 14.277 5.7442 14.6125 6.55304 14.9225C6.67485 14.9692 6.79514 15.0153 6.90849 15.0612C7.00821 15.0918 7.10981 15.1242 7.2129 15.157C8.10696 15.4417 9.11287 15.762 9.97778 15.2804C11.4132 14.4555 12.7617 13.5064 14.1074 12.5592C14.5498 12.2478 14.9919 11.9367 15.4367 11.6302C15.4574 11.6171 15.4807 11.6021 15.5062 11.5858C15.8857 11.3424 16.7418 10.7933 16.4233 11.5534C15.6756 12.3668 14.8768 13.0899 14.074 13.8166C13.5351 14.3044 12.9944 14.7938 12.4661 15.3133C12.0057 15.686 11.5234 16.4424 12.0386 16.9686C13.617 18.0647 15.2173 19.1388 16.8176 20.213L16.8179 20.2132C17.4866 20.7504 18.528 20.3229 18.6705 19.4898C18.7301 19.1428 18.7899 18.7959 18.8497 18.449C19.219 16.3074 19.5884 14.1647 19.9091 12.0138C19.9486 11.7232 19.9918 11.4319 20.035 11.1401C20.1597 10.2979 20.285 9.45134 20.3257 8.60473C20.227 7.79356 19.2514 7.96895 18.7034 8.1553C15.8971 9.21859 13.1348 10.3696 10.3724 11.5315C10.0544 11.6731 9.73161 11.8147 9.40648 11.9573Z" fill="#C0C7D3"/>
</svg>
