<svg width="23" height="26" viewBox="0 0 23 26" fill="none" xmlns="http://www.w3.org/2000/svg">
<path fill-rule="evenodd" clip-rule="evenodd" d="M12.4157 9.6484L12.4143 18.4482L12.0873 19.1353C11.4507 20.4726 9.91728 21.3425 8.45626 21.1949C7.49762 21.0981 6.74029 20.7044 6.06161 19.9502C5.38375 19.1969 5.12867 18.3812 5.22995 17.2897C5.40459 15.4053 6.92827 14.0939 8.90904 14.1232L9.77738 14.1361V12.1131C9.77738 11.0004 9.79294 10.0441 9.81211 9.98815C9.88088 9.78634 7.8148 9.80686 6.95689 10.0166C5.83973 10.2896 4.31869 11.0402 3.50843 11.7185C2.04366 12.9446 0.947197 15.1306 0.798399 17.1215C0.568326 20.2005 2.39808 23.3367 5.19258 24.6532C6.55274 25.294 7.31034 25.4596 8.88292 25.4596C11.8912 25.4596 14.6462 23.7907 15.9699 21.1662C16.7788 19.5627 16.8578 18.8882 16.8606 13.5723L16.863 8.83229L17.4979 9.40486C17.8472 9.71974 18.5506 10.1703 19.0609 10.4059C19.9081 10.7972 20.1101 10.8347 21.3783 10.8361L22.7676 10.8376L22.8058 8.71515L22.8439 6.59274L21.8027 6.52737C19.2068 6.36442 17.0785 4.30575 16.8937 1.77876L16.8256 0.848633H14.6214H12.4171L12.4157 9.6484Z" fill="#C0C7D3"/>
</svg>
