<svg width="27" height="27" viewBox="0 0 27 27" fill="none" xmlns="http://www.w3.org/2000/svg">
<path fill-rule="evenodd" clip-rule="evenodd" d="M7.93533 0.0119944C4.78996 0.108775 2.94215 0.645511 1.79379 1.79593C1.26209 2.32858 0.882539 2.97305 0.598244 3.82595C0.267747 4.8175 0.102261 5.9056 0.0180278 7.64115C-0.0060114 8.1365 -0.0060114 18.1678 0.0180406 18.6628C0.102107 20.394 0.268698 21.4894 0.598244 22.478C1.06071 23.8654 1.82075 24.7772 3.01221 25.3738C4.13399 25.9355 5.70231 26.2239 8.01242 26.2933C8.5686 26.31 17.7357 26.31 18.2911 26.2933C20.0503 26.2403 21.3214 26.0697 22.3482 25.7485C23.9321 25.2532 24.9401 24.3654 25.532 22.9442C25.9966 21.8286 26.2308 20.4037 26.2956 18.2967C26.3125 17.7479 26.3125 8.55608 26.2956 8.00726C26.1963 4.77943 25.672 2.95571 24.51 1.79626C23.3418 0.63061 21.535 0.110843 18.3039 0.0110053C17.8099 -0.00426835 8.43456 -0.00336915 7.93533 0.0119944ZM7.21874 8.37927C7.5285 8.44491 7.67487 8.6246 7.8696 9.17836C8.04049 9.66434 8.22895 10.1391 8.44241 10.6214C8.5816 10.9358 8.94974 11.6775 9.10554 11.9573C9.67469 12.9796 10.2409 13.7479 10.6547 14.0592C10.8053 14.1725 10.8893 14.2105 11.0018 14.2162C11.1928 14.2259 11.2793 14.156 11.3365 13.9456C11.3565 13.8719 11.3588 13.7226 11.3625 12.215C11.3661 10.7678 11.3641 10.5468 11.3463 10.4166C11.3081 10.1371 11.2439 9.9145 11.1443 9.71575C11.0731 9.57364 11.0078 9.47615 10.8391 9.25972C10.7592 9.15728 10.6775 9.03858 10.6574 8.99596C10.5387 8.74426 10.6612 8.46909 10.929 8.38594C11.0112 8.36041 11.0386 8.36005 12.6507 8.36347L14.2888 8.36694L14.3647 8.39753C14.4557 8.43417 14.5434 8.51709 14.5809 8.60199C14.6517 8.76191 14.6471 8.61757 14.6548 10.9104C14.6625 13.1956 14.6586 13.0641 14.7243 13.2213C14.7492 13.281 14.8326 13.3707 14.8826 13.3916C15.0107 13.4452 15.2286 13.3713 15.4368 13.2037C15.9577 12.7845 16.5641 11.9974 17.1887 10.9297C17.5272 10.3509 17.9351 9.54448 18.1827 8.96454C18.2601 8.78321 18.3411 8.65725 18.4357 8.57097C18.5267 8.48801 18.5951 8.44797 18.7229 8.40278L18.8243 8.36694L19.9635 8.36333C21.1966 8.35942 21.2033 8.35973 21.3532 8.42864C21.4441 8.47045 21.4913 8.51321 21.5352 8.59389C21.6885 8.87517 21.4512 9.52491 20.7664 10.6985C20.3669 11.383 19.6785 12.4462 19.0861 13.2933C18.7914 13.7148 18.7388 13.8561 18.8043 14.0498C18.8691 14.241 18.9553 14.3437 19.582 14.9761C20.0947 15.4936 20.3913 15.8173 20.8178 16.3249C21.4679 17.0987 21.8361 17.6693 21.9203 18.0334C21.9452 18.1412 21.9454 18.3189 21.9206 18.4024C21.8761 18.552 21.7578 18.6619 21.5745 18.7241L21.471 18.7592H20.2954H19.1198L19.024 18.7291C18.7252 18.6353 18.5558 18.4902 17.9075 17.7728C17.3152 17.1174 16.9671 16.7677 16.5565 16.4158C16.2373 16.1423 15.9246 15.9178 15.7005 15.8014C15.4575 15.6752 15.21 15.6234 15.0039 15.6556C14.8127 15.6855 14.7318 15.7634 14.6841 15.9634C14.6668 16.0363 14.6626 16.2097 14.6558 17.1535C14.647 18.363 14.6519 18.2891 14.5713 18.4267C14.4795 18.5832 14.2666 18.6832 13.9132 18.7358C13.6923 18.7686 12.9651 18.7687 12.7021 18.7359C11.2342 18.5529 9.82141 17.8312 8.61155 16.6464C8.05702 16.1033 7.68172 15.635 7.04406 14.6906C5.75688 12.7841 4.78554 10.7535 4.4639 9.29674C4.42819 9.13504 4.423 9.08715 4.42222 8.91289C4.42137 8.7243 4.42308 8.71001 4.45474 8.64253C4.50169 8.54246 4.55862 8.48289 4.65048 8.43769C4.80433 8.36199 4.79285 8.36264 6.01451 8.36176C6.93546 8.36111 7.14754 8.36419 7.21874 8.37927Z" fill="#C0C7D3"/>
</svg>
