<svg width="41" height="41" viewBox="0 0 41 41" fill="none" xmlns="http://www.w3.org/2000/svg">
<circle cx="20.5" cy="20.5" r="20.5" fill="#0077FF"/>
<path fill-rule="evenodd" clip-rule="evenodd" d="M13.2712 15.788C13.6058 15.8576 13.7639 16.0484 13.9743 16.6362C14.1589 17.1521 14.3625 17.656 14.5931 18.168C14.7434 18.5018 15.1411 19.2891 15.3094 19.5861C15.9242 20.6713 16.5359 21.4868 16.9829 21.8174C17.1456 21.9376 17.2363 21.978 17.3579 21.984C17.5642 21.9943 17.6576 21.9201 17.7194 21.6967C17.7411 21.6185 17.7435 21.46 17.7475 19.8597C17.7514 18.3234 17.7492 18.0888 17.73 17.9506C17.6888 17.6539 17.6195 17.4176 17.5118 17.2067C17.4348 17.0558 17.3644 16.9523 17.1821 16.7226C17.0959 16.6138 17.0075 16.4878 16.9858 16.4426C16.8576 16.1754 16.9899 15.8833 17.2792 15.795C17.368 15.7679 17.3976 15.7676 19.1391 15.7712L20.9087 15.7749L20.9907 15.8073C21.089 15.8462 21.1837 15.9343 21.2243 16.0244C21.3007 16.1941 21.2957 16.0409 21.3041 18.4748C21.3124 20.9006 21.3082 20.761 21.3791 20.9279C21.4061 20.9912 21.4962 21.0864 21.5502 21.1087C21.6885 21.1655 21.924 21.0871 22.1489 20.9092C22.7116 20.4642 23.3667 19.6286 24.0413 18.4953C24.407 17.8809 24.8477 17.0248 25.1152 16.4092C25.1988 16.2167 25.2863 16.083 25.3885 15.9915C25.4868 15.9034 25.5606 15.8609 25.6987 15.8129L25.8082 15.7749L27.0389 15.771C28.371 15.7669 28.3782 15.7672 28.5401 15.8404C28.6384 15.8847 28.6893 15.9301 28.7368 16.0158C28.9024 16.3144 28.646 17.0041 27.9062 18.2498C27.4747 18.9765 26.731 20.1051 26.0911 21.0043C25.7727 21.4517 25.7159 21.6017 25.7867 21.8073C25.8567 22.0103 25.9498 22.1193 26.6267 22.7906C27.1807 23.34 27.5011 23.6836 27.9617 24.2224C28.664 25.0438 29.0618 25.6495 29.1528 26.036C29.1797 26.1505 29.1799 26.3391 29.1531 26.4277C29.1051 26.5865 28.9773 26.7032 28.7792 26.7692L28.6674 26.8064H27.3974H26.1275L26.024 26.7745C25.7012 26.6749 25.5182 26.5209 24.8179 25.7593C24.1781 25.0636 23.802 24.6925 23.3584 24.3189C23.0136 24.0285 22.6758 23.7902 22.4337 23.6667C22.1712 23.5328 21.9038 23.4778 21.6812 23.512C21.4747 23.5437 21.3873 23.6264 21.3358 23.8386C21.317 23.916 21.3125 24.1001 21.3052 25.1019C21.2957 26.3859 21.301 26.3074 21.2139 26.4535C21.1147 26.6197 20.8848 26.7258 20.503 26.7816C20.2643 26.8164 19.4788 26.8165 19.1946 26.7817C17.609 26.5874 16.0827 25.8214 14.7758 24.5636C14.1767 23.9871 13.7713 23.4901 13.0824 22.4875C11.6919 20.4637 10.6427 18.3082 10.2952 16.7619C10.2566 16.5902 10.251 16.5394 10.2502 16.3544C10.2492 16.1542 10.2511 16.139 10.2853 16.0674C10.336 15.9612 10.3975 15.8979 10.4967 15.85C10.6629 15.7696 10.6505 15.7703 11.9703 15.7694C12.9651 15.7687 13.1942 15.772 13.2712 15.788Z" fill="white"/>
</svg>
