<svg width="30" height="21" viewBox="0 0 30 21" fill="none" xmlns="http://www.w3.org/2000/svg">
<path fill-rule="evenodd" clip-rule="evenodd" d="M12.7735 0.401147C11.6727 0.419157 10.3358 0.457934 9.39483 0.499145C8.89931 0.520852 8.41123 0.547066 7.87471 0.580779C6.52576 0.665554 5.32758 0.789501 4.51325 0.928502C4.14238 0.991813 4.04944 1.01288 3.85358 1.07803C2.74855 1.44561 1.87274 2.35098 1.53804 3.47172C1.44746 3.77503 1.31422 4.52627 1.22151 5.25645C1.08509 6.33097 1.00292 7.42253 0.944509 8.93602C0.92488 9.44453 0.917663 11.2543 0.93283 11.8623C0.991822 14.2266 1.20325 16.2897 1.51317 17.5249C1.77472 18.5674 2.49845 19.4556 3.46196 19.9168C3.8459 20.1006 4.15256 20.1819 4.83448 20.2809C7.73514 20.7018 15.1382 20.8843 20.833 20.6754C23.9138 20.5624 26.06 20.3471 26.8389 20.073C27.3651 19.8878 27.8355 19.5906 28.2257 19.1967C28.6511 18.7674 28.9554 18.2526 29.1325 17.6627C29.1736 17.5257 29.2744 17.0223 29.339 16.6312C29.5274 15.4904 29.6601 14.1519 29.7297 12.6909C29.801 11.1915 29.7942 9.24591 29.7129 7.93355C29.6374 6.714 29.5541 5.88059 29.4201 5.00325C29.3304 4.41644 29.1942 3.74105 29.1088 3.46032C28.838 2.56974 28.2595 1.83438 27.4544 1.35721C27.1014 1.14802 26.6075 0.969875 26.1391 0.882817C24.9461 0.661093 22.2098 0.498125 18.2172 0.410998C17.5061 0.39548 13.5572 0.388341 12.7735 0.401147ZM16.8839 8.71552C18.6429 9.73456 20.0781 10.5718 20.0732 10.5761C20.0683 10.5803 18.6833 11.3835 16.9954 12.3609C15.3075 13.3383 13.618 14.3167 13.241 14.5351L12.5555 14.9322V10.57V6.20787L13.1206 6.53528C13.4313 6.71537 15.1248 7.69647 16.8839 8.71552Z" fill="#C0C7D3"/>
</svg>
