<svg width="100" height="45" viewBox="0 0 100 45" fill="none" xmlns="http://www.w3.org/2000/svg">
<path fill-rule="evenodd" clip-rule="evenodd" d="M20.5341 0.132792C19.1549 0.316764 17.4867 0.918725 16.4788 1.59576C16.1026 1.84859 12.417 5.11284 8.28866 8.84953C2.77302 13.842 0.673901 15.8651 0.373247 16.4784C-0.0164903 17.2734 -0.0330921 17.6313 0.0248117 23.9855L0.08555 30.6577L0.614378 31.7587C2.03991 34.7263 5.02276 36.6138 8.74075 36.9015L10.3098 37.0228V36.2345C10.3098 35.0964 10.8366 33.2655 11.5388 31.9629C12.86 29.5118 15.2389 27.5396 18.2058 26.4355C19.6012 25.9163 19.9543 25.8698 22.5587 25.8618C24.9413 25.8546 25.6191 25.9241 26.8104 26.2972C31.1637 27.6611 34.4089 31.2524 35.0471 35.4121L35.2852 36.9636H49.9922H64.6991L64.9372 35.4121C65.6078 31.0406 69.1674 27.3202 73.8008 26.1485C75.5267 25.7121 78.6084 25.6224 80.1588 25.9633C83.6796 26.7374 86.8765 29.052 88.4456 31.9629C89.1412 33.2533 89.6745 35.0942 89.6745 36.2049V36.9636H92.7804C96.2053 36.9636 97.2773 36.7572 98.4508 35.8721C99.8403 34.8244 100 34.1708 100 29.5354C100 23.8293 99.5489 22.3391 97.0643 19.8368C95.6637 18.4261 94.5129 17.7138 92.4539 16.9827C91.0205 16.4738 90.8532 16.4608 84.3066 16.3537C78.0745 16.2516 77.5801 16.2172 76.9907 15.8439C76.6429 15.6236 72.9253 12.3806 68.7291 8.63713C64.5329 4.89363 60.7643 1.62679 60.3543 1.37735C59.9445 1.12792 59.0169 0.724143 58.2931 0.479915L56.9771 0.0361016L39.363 0.00327069C29.6752 -0.0147461 21.2022 0.0435089 20.5341 0.132792ZM35.2125 10.2386V16.3443H20.9052C13.0364 16.3443 6.63597 16.3093 6.68233 16.2664C10.3997 12.8342 19.288 5.00654 19.7243 4.78073C20.8062 4.2206 21.4474 4.17416 28.3795 4.15334L35.2125 4.13292V10.2386ZM57.3162 4.63339C57.9618 4.98092 70.036 15.6585 70.3484 16.1583C70.4195 16.2723 64.5347 16.3443 55.1669 16.3443H39.8691V10.2284V4.11231L48.2206 4.17276C56.1255 4.22982 56.612 4.25444 57.3162 4.63339ZM21.1472 28.7691C17.5519 29.3635 14.7028 31.7955 13.8377 35.0089C12.9084 38.4608 14.6599 42.0918 18.1321 43.9117C19.7388 44.7538 20.8111 45.0067 22.7464 44.9999C26.4559 44.9867 29.678 43.0657 31.1309 40.0014C31.6018 39.0081 31.6694 38.6131 31.6694 36.8593C31.6694 35.0025 31.6207 34.7553 31.0147 33.5384C29.7653 31.0288 27.1238 29.1845 24.1784 28.7653C22.5858 28.5387 22.5413 28.5387 21.1472 28.7691ZM75.6197 28.7773C72.882 29.1721 70.1805 31.1061 68.9696 33.5384C68.3637 34.7553 68.3149 35.0025 68.3149 36.8593C68.3149 38.6131 68.3825 39.0081 68.8534 40.0014C70.3063 43.0657 73.5284 44.9867 77.2379 44.9999C79.1781 45.0067 80.2455 44.7538 81.8688 43.9028C84.2295 42.6655 85.7903 40.5713 86.276 37.9899C87.0684 33.7764 83.5964 29.5254 78.7416 28.7649C77.2778 28.5357 77.2968 28.5355 75.6197 28.7773Z" fill="#BDC5D8"/>
</svg>
