<svg width="244" height="80" viewBox="0 0 244 80" fill="none" xmlns="http://www.w3.org/2000/svg">
<path fill-rule="evenodd" clip-rule="evenodd" d="M225.9 69.5C229.3 69.2 233 68.9 235.9 68.5C238.5 68.1 240.6 67.5 241.4 66.7C244.1 64.2 243.8 56.4 243.7 52.4C243.7 51.4 241.2 51.4 241.2 50.4C240.8 44.2 240.4 38.9 239.7 32.6C239.4 30 237.2 27.8 233.8 26.8C223.4 23.6 208 21.5 203.1 20C199.5 18.9 197.8 17.7 196 16.5C189 12.1 180.2 7.39998 175.3 5.19998C170.7 3.19998 167.1 0.599985 161 0.599985C144.6 0.599985 125.7 -0.50001 110.4 4.29999C95.8002 8.89999 82.4002 17.4 68.6002 23.9C51.8002 25.7 33.2002 29.1 16.1002 33.3C10.6002 34.7 8.20019 37.2 6.50019 40.5C4.70019 44.1 3.80021 47.4 2.90021 49.4C1.60021 49.5 1.50016 49.9 1.10016 50.7C0.700165 51.4 0.800177 54.4 0.800177 55.5C0.800177 57.2 1.00016 59.7 1.10016 61.4C1.40016 64.8 2.0002 66.8 3.7002 68.1C4.7002 68.8 6.3002 69.4 7.7002 69.5L12.4002 69.7C17.6002 69 17.1002 70 16.8002 64.2C16.7002 63.4 16.7002 62.5 16.7002 61.7C16.7002 48.5 27.4002 37.9 40.5002 37.9C53.7002 37.9 64.3002 48.6 64.3002 61.7C64.3002 63.9 64.2002 66.1 63.8002 68.1C62.8002 73.3 62.3002 72.2 67.6002 72.6L169.3 72.5C174.4 71.9 173.9 72.7 173.3 66.7C173.1 65.1 173.1 63.4 173.1 61.7C173.1 48.5 183.8 37.9 196.9 37.9C210.1 37.9 220.7 48.6 220.7 61.7C220.7 62.9 220.7 64.1 220.7 65.3C220.8 70.3 221.6 69.8 225.9 69.5ZM148.9 25.2C150.2 14.7 150.8 10.8 151.3 7.89999C151.5 6.59999 151.8 5.89999 153.3 5.89999L156.9 5.79999C159.5 5.69999 172.1 14.1 177.2 19.3C180.1 22.3 181.3 26.6 174.9 26.9L152.3 28C148.6 28.2 148.5 28.5 148.9 25.2ZM94.3002 30.1C93.8002 30.1 95.0002 27.8 95.2002 26C95.4002 22.8 89.6002 22.6 86.0002 22.8C93.0002 17.6 103.4 12.1 112.6 8.89999C115.9 7.79999 124.7 6.49999 130.9 6.29999L143.8 5.89999C145.2 5.89999 145.2 6.49998 145 7.69998C144.4 12 143.2 19.7 142.2 25.1C141.7 27.7 141.2 28.3 138.5 28.4L94.3002 30.1ZM197 43.3C207.1 43.3 215.3 51.5 215.3 61.6C215.3 71.7 207.1 79.9 197 79.9C186.9 79.9 178.7 71.7 178.7 61.6C178.6 51.5 186.8 43.3 197 43.3ZM40.6002 43.3C50.7002 43.3 58.9002 51.5 58.9002 61.6C58.9002 71.7 50.7002 79.9 40.6002 79.9C30.5002 79.9 22.3002 71.7 22.3002 61.6C22.3002 51.5 30.5002 43.3 40.6002 43.3Z" fill="#2E333D"/>
</svg>
