<svg width="23" height="26" viewBox="0 0 23 26" fill="none" xmlns="http://www.w3.org/2000/svg">
<path fill-rule="evenodd" clip-rule="evenodd" d="M5.73499 1.99306L2.67523e-07 4.01033V9.13481C2.67523e-07 14.7939 -0.00222146 14.7541 0.398267 16.2595C1.39441 20.0037 4.3969 23.1534 8.80774 25.0813C9.71699 25.4787 11.2499 26 11.5091 26C11.945 26 13.9895 25.2283 15.2212 24.5988C19.3169 22.5057 21.8764 19.4918 22.722 15.7667C22.9896 14.5875 23 14.3363 23 9.04784V4.01045L17.3251 2.01747C14.2039 0.92132 11.6096 0.0135413 11.5601 0.000148082C11.5105 -0.0132451 8.88923 0.883576 5.73499 1.99306ZM17.2955 9.30249L17.9545 9.94072L13.7664 13.9842L9.57839 18.0277L7.3116 15.8392L5.04481 13.6507L5.72015 12.9987L6.39544 12.3467L7.98707 13.8825L9.57869 15.4184L13.0765 12.0413C15.0003 10.1839 16.5883 8.66425 16.6054 8.66425C16.6225 8.66425 16.933 8.95148 17.2955 9.30249Z" fill="#C6FFD9"/>
</svg>
