<svg width="34" height="34" viewBox="0 0 34 34" fill="none" xmlns="http://www.w3.org/2000/svg">
<path d="M27.5178 28.2401L20.9322 21.6545C19.8078 20.5301 19.8078 18.7071 20.9322 17.5827L29.2421 9.27274L30.5353 10.566C29.4022 11.7949 26.9123 14.9362 26.0179 17.6699C25.1234 20.4036 28.5348 23.9661 30.3523 25.4057L27.5178 28.2401Z" fill="#316BFE"/>
<path d="M6.48214 28.2401L13.0678 21.6545C14.1922 20.5301 14.1922 18.7071 13.0678 17.5827L4.75783 9.27274L3.4646 10.566C4.59773 11.7949 7.08761 14.9362 7.98205 17.6699C8.87649 20.4036 5.46514 23.9661 3.64766 25.4057L6.48214 28.2401Z" fill="#316BFE"/>
<path fill-rule="evenodd" clip-rule="evenodd" d="M0 17C0 7.61116 7.61116 0 17 0C26.3888 0 34 7.61116 34 17C34 26.3888 26.3888 34 17 34C7.61116 34 0 26.3888 0 17ZM17 30.1364C24.255 30.1364 30.1363 24.255 30.1363 17C30.1363 9.745 24.255 3.86365 17 3.86365C9.74495 3.86365 3.8636 9.745 3.8636 17C3.8636 24.255 9.74495 30.1364 17 30.1364Z" fill="#316BFE"/>
<path d="M24.7273 19.2153C24.7273 20.9792 23.2974 22.4091 21.5335 22.4091L11.6938 22.4091C9.92993 22.4091 8.50002 20.9792 8.50003 19.2153L8.50003 17.6866C8.50003 14.7468 10.8832 12.3636 13.823 12.3636L19.4043 12.3636C22.3441 12.3636 24.7273 14.7468 24.7273 17.6866L24.7273 19.2153Z" fill="#316BFE"/>
</svg>
