<svg width="17" height="21" viewBox="0 0 17 21" fill="none" xmlns="http://www.w3.org/2000/svg">
<path fill-rule="evenodd" clip-rule="evenodd" d="M7.25794 0.0616896C5.35695 0.357464 3.83481 1.10346 2.49434 2.39629C0.88832 3.94522 0.0710288 5.76252 0.00412415 7.93347C-0.0594885 9.99814 0.611179 12.0305 2.12801 14.3698C3.47603 16.4488 5.92607 19.0624 8.12972 20.7722C8.55815 21.1046 8.41942 21.1487 9.34571 20.3852C12.0843 18.1279 14.4287 15.3835 15.6934 12.9549C16.6665 11.0861 17.0526 9.58438 16.9943 7.89427C16.9393 6.29937 16.4856 4.94672 15.5539 3.59967C14.3256 1.824 12.3496 0.558563 10.1346 0.129161C9.42137 -0.00909736 7.93686 -0.0439057 7.25794 0.0616896ZM9.4585 4.4028C9.64098 4.44497 10.0296 4.59161 10.3221 4.7287C10.7921 4.94896 10.9101 5.03213 11.3382 5.44413C11.7662 5.85613 11.8526 5.96977 12.0814 6.42218C12.4254 7.10216 12.518 7.47535 12.5171 8.17723C12.5162 8.88529 12.4224 9.26745 12.0868 9.93106C11.8582 10.3831 11.7724 10.4958 11.34 10.9121C10.9075 11.3283 10.7905 11.4109 10.3208 11.6309C9.63141 11.954 9.23438 12.0442 8.49879 12.0451C7.32342 12.0466 6.34168 11.6319 5.52328 10.7884C5.11319 10.3657 4.72002 9.66185 4.56848 9.07913C4.44769 8.61457 4.44855 7.73422 4.57025 7.27533C4.98156 5.72479 6.28881 4.57348 7.91635 4.32836C8.30628 4.26961 9.03392 4.30476 9.4585 4.4028Z" fill="white"/>
</svg>
