<svg width="19" height="16" viewBox="0 0 19 16" fill="none" xmlns="http://www.w3.org/2000/svg">
<path fill-rule="evenodd" clip-rule="evenodd" d="M8.06066 0.978992C8.68962 0.679576 9.29799 0.507927 9.98836 0.4352C11.7939 0.244933 13.6535 0.954209 14.9318 2.3207C15.8057 3.25492 16.3497 4.36936 16.5592 5.65458C16.6338 6.11262 16.6338 7.11413 16.5592 7.57217C16.3891 8.61545 15.9773 9.6002 15.3785 10.3953C15.2893 10.5138 15.23 10.6196 15.2417 10.6392C15.2531 10.6582 16.0545 11.5178 17.0225 12.5493C17.9904 13.5808 18.8188 14.4796 18.8631 14.5466C19.2163 15.0793 18.8457 15.7831 18.2108 15.7855C18.1546 15.7857 18.1084 15.7865 18.0631 15.7801C17.8322 15.7473 17.6281 15.526 16.27 14.0768C15.4617 13.2142 14.6302 12.3295 14.4222 12.1108L14.0441 11.7131L13.7897 11.8791C13.4547 12.0976 12.9419 12.353 12.5862 12.4786C11.9779 12.6933 11.3572 12.8075 10.7423 12.8254C11.0041 12.5337 11.1473 12.3111 11.301 12.0085C11.4718 11.6723 11.5874 11.3786 11.66 11.0748C12.3449 10.8996 12.9853 10.5569 13.5353 10.0623C14.1935 9.47057 14.6929 8.63906 14.9148 7.76556C15.0878 7.08456 15.0914 6.23034 14.9241 5.5306C14.4891 3.7107 13.0088 2.3357 11.2006 2.07199C11.0337 2.04766 10.7388 2.0288 10.5453 2.03009C8.2986 2.04517 6.44976 3.75726 6.14795 5.97756C5.89434 6.048 5.63834 6.14878 5.34638 6.28663L4.97262 6.46312L4.70827 6.32437C4.65567 6.29677 4.59752 6.26885 4.53528 6.24112C4.58008 5.50033 4.75595 4.7603 5.06924 4.05683C5.37987 3.35931 5.77382 2.77961 6.30654 2.23609C6.85151 1.68012 7.37294 1.30638 8.06066 0.978992Z" fill="#316BFE"/>
<path d="M9.18496 8.36271C8.94178 8.13448 8.65305 7.95344 8.33526 7.82992C8.01747 7.7064 7.67685 7.64282 7.33286 7.64282C6.98887 7.64282 6.64825 7.7064 6.33046 7.82992C6.01267 7.95344 5.72393 8.13448 5.48075 8.36271L4.97607 8.83614L4.47138 8.36271C3.98017 7.90193 3.31395 7.64306 2.61927 7.64306C1.9246 7.64306 1.25838 7.90193 0.767167 8.36271C0.275958 8.82349 5.17573e-09 9.44845 0 10.1001C-5.17573e-09 10.7517 0.275958 11.3767 0.767167 11.8375L1.27185 12.3109L4.97607 15.7857L8.68028 12.3109L9.18496 11.8375C9.42826 11.6094 9.62126 11.3385 9.75293 11.0404C9.88461 10.7423 9.95238 10.4228 9.95238 10.1001C9.95238 9.77741 9.88461 9.45789 9.75293 9.15978C9.62126 8.86168 9.42826 8.59083 9.18496 8.36271Z" fill="#316BFE"/>
</svg>
