<svg width="246" height="79" viewBox="0 0 246 79" fill="none" xmlns="http://www.w3.org/2000/svg">
<path fill-rule="evenodd" clip-rule="evenodd" d="M197.601 42.2999C207.701 42.2999 215.901 50.4999 215.901 60.5999C215.901 70.6999 207.701 78.8999 197.601 78.8999C187.501 78.8999 179.301 70.6999 179.301 60.5999C179.301 50.4999 187.501 42.2999 197.601 42.2999ZM180.601 9.79994L179.401 25.7999C183.001 25.5999 186.501 25.3999 189.701 25.2999C190.901 25.2999 191.501 24.7999 192.001 24.0999C192.701 23.0999 193.801 20.6999 194.201 19.4999C194.501 18.5999 194.401 18.1999 193.701 17.1999C192.601 15.6999 185.901 12.1999 180.601 9.79994ZM176.601 25.8999L178.101 8.69993C176.501 7.99993 175.201 7.49994 174.501 7.29994C170.401 6.09994 166.001 5.29994 161.901 5.29994L147.901 5.09993C147.101 5.09993 146.101 5.49994 145.901 5.99994C144.801 8.89994 144.501 12.8999 143.001 24.8999C142.601 28.1999 142.801 27.2999 146.501 27.2999C155.501 27.0999 166.501 26.4999 176.601 25.8999ZM226.001 68.6999C229.701 68.3999 233.901 68.0999 237.301 67.4999C239.901 67.0999 242.001 66.4999 242.801 65.6999C245.501 63.1999 245.201 55.3999 245.101 51.3999C245.101 50.3999 242.601 50.3999 242.601 49.3999C242.201 43.1999 241.801 36.3999 241.101 30.0999C240.301 22.4999 224.701 22.1999 215.201 19.1999C208.401 17.0999 202.801 12.3999 194.101 8.59993C184.501 4.39993 176.101 0.499936 166.001 0.499936C149.601 0.499936 125.201 -1.50006 109.901 3.39994C95.3006 8.09994 81.9006 16.4999 68.1006 22.9999C51.3006 24.7999 32.7006 28.1999 15.6006 32.3999C10.1006 33.7999 7.70058 36.2999 6.00058 39.5999C4.20058 43.1999 3.30057 46.4999 2.40057 48.4999C1.10057 48.5999 1.00058 48.2999 0.600581 49.0999C0.200581 49.8999 0.400563 50.9999 0.300563 52.3999C0.100563 55.4999 0.100569 59.4999 0.900569 62.2999C1.60057 64.8999 2.30058 66.1999 3.60058 67.1999C4.60058 67.8999 5.80059 68.4999 7.20059 68.5999L13.4006 68.7999C17.1006 68.0999 16.4006 67.5999 16.2006 62.8999C16.2006 62.1999 16.1006 61.4999 16.1006 60.6999C16.1006 47.4999 26.8006 36.8999 39.9006 36.8999C53.1006 36.8999 63.7006 47.5999 63.7006 60.6999C63.7006 61.9999 63.7006 63.3999 63.6006 64.5999C63.0006 72.5999 62.3006 71.1999 69.5006 71.5999L169.401 71.4999C174.701 70.7999 174.401 71.3999 173.901 64.7999C173.801 63.4999 173.801 62.0999 173.801 60.7999C173.801 47.5999 184.501 36.9999 197.601 36.9999C210.801 36.9999 221.401 47.6999 221.401 60.7999C221.401 61.8999 221.401 63.0999 221.301 64.1999C220.901 69.3999 222.401 68.9999 226.001 68.6999ZM93.7006 29.0999C93.8006 28.5999 94.4006 26.7999 94.6006 24.9999C94.8006 21.7999 89.0006 21.5999 85.4006 21.7999C92.4006 16.5999 102.801 11.0999 112.001 7.89994C115.301 6.79994 124.101 5.39994 130.301 5.29994L138.201 5.09993C139.601 5.09993 139.801 5.69994 139.401 6.89994C138.001 10.6999 137.401 18.7999 136.601 24.2999C136.201 26.8999 135.601 27.5999 132.901 27.5999C122.101 27.5999 93.5006 29.5999 93.7006 29.0999ZM39.9006 42.2999C50.0006 42.2999 58.2006 50.4999 58.2006 60.5999C58.2006 70.6999 50.0006 78.8999 39.9006 78.8999C29.8006 78.8999 21.6006 70.6999 21.6006 60.5999C21.6006 50.4999 29.8006 42.2999 39.9006 42.2999Z" fill="#2E333D"/>
</svg>
