<svg width="72" height="29" viewBox="0 0 72 29" fill="none" xmlns="http://www.w3.org/2000/svg">
<path fill-rule="evenodd" clip-rule="evenodd" d="M33.3491 0.00854719C33.2229 0.0144622 32.7211 0.0352475 32.2342 0.0547441C27.4168 0.247495 22.5168 0.881661 18.1988 1.87126C11.1998 3.47529 5.71325 5.99378 2.65912 9.00444C1.06916 10.5717 0.210675 12.1616 0.0151643 13.9008C-0.0268433 14.2744 0.0226738 15.1574 0.111411 15.617C0.816523 19.2683 4.79351 22.5862 11.5091 25.1259C15.765 26.7353 21.165 27.9314 26.9179 28.5389C31.1354 28.9843 35.752 29.1106 40.2028 28.9022C44.852 28.6846 49.0024 28.1508 53.3044 27.2171C57.2544 26.3598 61.181 25.0327 64.0645 23.5806C67.0237 22.0904 69.1643 20.4498 70.508 18.6423C71.4869 17.3255 71.998 15.9369 72 14.5881C72.0042 11.8442 70.232 9.24881 66.8055 6.98057C66.0526 6.48215 65.6965 6.26885 64.8569 5.81339C60.2018 3.28813 53.5888 1.4345 46.0892 0.552765C44.2021 0.330901 42.3485 0.180844 39.8913 0.0509439C39.276 0.0184277 33.8837 -0.0165339 33.3491 0.00854719ZM38.6944 1.24416C45.3377 1.45274 51.7949 2.55327 56.96 4.35723C60.0549 5.4382 62.5053 6.67537 64.4708 8.1494C67.4796 10.4059 68.8187 13.0633 68.2681 15.6848C68.0698 16.6292 67.4548 17.8329 66.715 18.7249C63.9203 22.0944 57.9341 24.8932 50.2538 26.4211C48.8439 26.7015 48.6744 26.7316 47.3517 26.9351C39.4845 28.1459 30.7247 28.0502 23.0194 26.6694C18.5516 25.8688 14.3595 24.5842 11.2671 23.0682C6.8469 20.9013 4.31132 18.3816 3.72056 15.5692C3.63166 15.1459 3.5947 14.1408 3.65301 13.7317C3.81471 12.5969 4.33674 11.4568 5.19493 10.3646C5.514 9.95845 6.39023 9.06736 6.83611 8.69557C8.2 7.5583 9.76425 6.60118 11.8042 5.65583C16.8511 3.31698 23.9109 1.76145 31.4425 1.32886C31.8909 1.30312 32.28 1.29066 32.3073 1.30123C32.3456 1.316 32.3527 1.35506 32.3386 1.47227C32.3285 1.55584 31.6691 5.23021 30.8732 9.63758C29.9004 15.0248 29.4361 17.6672 29.4564 17.7006C29.5367 17.8323 29.6227 17.7791 30.4142 17.1087C30.9156 16.6839 32.0248 15.5726 32.462 15.057C33.2119 14.1724 34.0146 13.0354 34.48 12.1986C34.9603 11.335 35.3903 10.3357 35.639 9.5054C35.8776 8.70869 35.984 8.04234 36.0115 7.17352C36.0477 6.02693 35.8918 5.35677 35.4149 4.60946C35.188 4.25393 34.6623 3.74659 34.2904 3.52427C34.1232 3.42431 33.9561 3.31978 33.9191 3.29199L33.8518 3.2415L34.0195 2.30064C34.1117 1.78319 34.2011 1.32661 34.2181 1.28603C34.2488 1.21271 34.2545 1.21218 35.0944 1.20342C36.268 1.19116 37.4237 1.20425 38.6944 1.24416ZM29.6927 3.29629C23.7977 3.91083 18.9918 5.12348 15.1359 6.9693C12.4669 8.24699 10.466 9.79931 9.38182 11.4334C8.84962 12.2355 8.49864 13.1567 8.41673 13.9665C8.37797 14.3496 8.42342 15.1032 8.50917 15.5C9.13584 18.3994 12.2887 21.0428 17.4548 23.0003C20.7516 24.2495 24.9381 25.1868 29.2008 25.6299C34.0729 26.1364 39.1357 26.0907 43.9412 25.4968C48.3346 24.954 52.5261 23.8946 55.763 22.5091C59.8987 20.7388 62.5437 18.4959 63.3391 16.0845C63.5509 15.4424 63.5845 15.2235 63.5812 14.5117C63.5787 14.0008 63.5649 13.8207 63.5067 13.5452C63.1564 11.8833 62.0593 10.3685 60.1737 8.94314C57.0159 6.55604 51.8472 4.68596 45.794 3.74038C44.6482 3.56141 43.8172 3.45385 43.7363 3.47407C43.6416 3.4977 43.6434 3.54568 43.7476 3.77941C43.9913 4.32607 44.1876 5.00884 44.3077 5.72747C44.4016 6.28904 44.3912 7.71004 44.2889 8.31578C43.895 10.6464 42.7505 12.8934 40.9489 14.8728C40.7743 15.0646 40.7422 15.1181 40.7505 15.2032L40.7603 15.3048L41.6293 15.3933C42.718 15.5042 43.9557 15.6697 43.9954 15.7097C44.0274 15.7419 44.1872 16.5661 44.1872 16.6988C44.1872 16.742 44.163 16.7867 44.1334 16.7982C44.1038 16.8096 43.9082 16.7833 43.6988 16.7397C43.2324 16.6426 42.696 16.6341 42.4118 16.7195C41.6294 16.9544 42.0061 17.7161 43.2362 18.3861C44.3349 18.9846 44.9239 19.6713 44.9944 20.4363C45.0674 21.2269 44.3885 22.0754 43.1663 22.7214C42.1103 23.2796 40.57 23.731 38.9895 23.9455C37.9462 24.0872 37.4947 24.1171 36.1365 24.1346C32.6395 24.1797 28.9259 23.8134 25.6428 23.0994C25.2641 23.017 24.9414 22.9372 24.9259 22.922C24.9014 22.8981 25.1067 21.6453 25.1565 21.5144C25.1795 21.454 25.2559 21.4553 25.4337 21.5192C26.1556 21.7785 27.433 22.0591 28.4958 22.1919C29.5407 22.3225 29.9187 22.3434 31.2176 22.3426C32.889 22.3417 33.8721 22.2524 35.2347 21.9778C38.4749 21.3247 40.4451 19.9394 40.1888 18.4944C40.1028 18.0089 39.7289 17.4642 39.2007 17.0547C38.8688 16.7973 38.9226 16.7883 38.3578 17.195C35.6638 19.1347 32.4833 20.3239 29.5288 20.496C28.8913 20.5332 28.4327 20.3707 28.0357 19.9672C27.6871 19.6128 27.4963 19.1736 27.4951 18.7228C27.4949 18.624 28.1091 15.1312 28.86 10.9611C29.8193 5.63316 30.2158 3.3637 30.1934 3.32768C30.1545 3.265 30.0536 3.25868 29.6927 3.29629Z" fill="#005AA1"/>
</svg>
