<svg width="44" height="45" viewBox="0 0 44 45" fill="none" xmlns="http://www.w3.org/2000/svg">
<path fill-rule="evenodd" clip-rule="evenodd" d="M20.3577 0.0417533C16.1599 0.339439 11.9535 1.97737 8.59647 4.62145C3.79014 8.40705 0.815493 13.8038 0.101147 20.0341C-0.0567522 21.4114 -0.0265199 23.7835 0.16904 25.3593C1.12386 33.0533 5.81276 39.6362 12.6745 42.9164C14.97 44.0137 17.0542 44.5936 19.8827 44.9219C20.6878 45.0154 23.1078 45.0281 23.8992 44.943C26.9297 44.6171 29.2114 43.9637 31.7165 42.7045C34.0037 41.5547 35.8862 40.1664 37.6575 38.323C38.4475 37.5009 38.8406 37.0489 39.3654 36.3593C42.0543 32.8266 43.6357 28.606 43.959 24.0998C44.0413 22.9529 43.9971 21.258 43.8502 19.9236C43.0188 12.3722 38.5033 5.75779 31.8524 2.34899C29.3109 1.04644 26.3967 0.23638 23.5395 0.0383063C22.7817 -0.0141953 21.1216 -0.0124276 20.3577 0.0417533ZM23.9856 2.13231C25.0229 2.24461 25.8499 2.39924 26.8496 2.66771C27.3282 2.79627 28.4515 3.15614 28.4876 3.19247C28.5103 3.21527 22.1928 17.7334 22.1341 17.7935C22.0267 17.9032 21.8663 17.8251 21.7669 17.6147C21.718 17.5112 20.2892 14.2249 18.5918 10.3116L15.5055 3.19644L15.9881 3.02833C17.349 2.55423 18.8341 2.23471 20.2282 2.1161C20.537 2.0898 20.8771 2.06068 20.984 2.05131C21.3935 2.01542 23.4085 2.06982 23.9856 2.13231ZM16.1915 13.2455C19.3888 20.52 19.8072 21.4477 19.924 21.5205C20.0469 21.5973 20.1821 21.6026 22.0119 21.6027C24.2292 21.6029 24.1505 21.6146 24.3259 21.2594C24.3826 21.1445 25.9981 17.4808 27.9157 13.1178C29.8334 8.75485 31.4573 5.06078 31.5244 4.90875L31.6464 4.63237L31.919 4.79425C34.0227 6.0439 36.0313 7.82352 37.5983 9.826C38.1478 10.5282 38.776 11.4368 38.7744 11.5269C38.7737 11.5633 36.4566 16.3263 33.6252 22.1111C28.848 31.8717 28.4691 32.6301 28.3632 32.6427C28.2783 32.6527 28.2276 32.6245 28.1655 32.5322C28.1195 32.464 27.2125 30.3797 26.1499 27.9005C24.7489 24.632 24.1827 23.3563 24.0901 23.2602L23.9624 23.1276L22.0305 23.1138C20.004 23.0994 19.865 23.1101 19.7011 23.2926C19.6516 23.3477 18.755 25.4592 17.7085 27.9848C16.6621 30.5104 15.7806 32.5932 15.7496 32.6134C15.7186 32.6334 15.6497 32.6502 15.5962 32.6506C15.4815 32.6514 15.6454 32.9837 9.43278 20.1557C7.13439 15.4099 5.26353 11.5022 5.27536 11.4717C5.31363 11.3731 5.95421 10.4566 6.31527 9.98386C7.2399 8.77328 8.43723 7.52809 9.5715 6.59747C10.2639 6.02941 11.4442 5.19486 12.0619 4.83672L12.4038 4.63842L12.4972 4.84547C12.5485 4.95935 14.211 8.73938 16.1915 13.2455ZM10.0911 29.2484C12.835 34.8996 15.1266 39.5861 15.1837 39.6629C15.3726 39.9174 15.7173 40.0134 15.9654 39.8808C16.1245 39.7957 16.2922 39.604 16.3999 39.3839C16.4932 39.1935 21.7532 27.1559 21.7944 27.0387C21.8786 26.799 22.0974 26.7487 22.2266 26.9393C22.272 27.0061 23.5312 29.8648 25.0249 33.292C27.9927 40.1012 27.8694 39.8487 28.2607 39.9238C28.4917 39.9681 28.7417 39.8709 28.8928 39.678C28.9594 39.5929 31.6501 34.0941 34.8721 27.4585C38.0941 20.8229 40.7354 15.3881 40.7417 15.3812C40.7565 15.3649 41.0219 16.1563 41.1904 16.7196C41.901 19.0937 42.1634 21.9174 41.9066 24.4245C41.3438 29.9187 38.6574 34.9448 34.4267 38.4186C31.9316 40.4673 29.0298 41.8683 25.965 42.504C23.1839 43.0808 20.6068 43.0731 17.8744 42.4797C13.4195 41.5123 9.39395 38.9612 6.492 35.2663C4.15884 32.2956 2.69184 28.7709 2.24177 25.0541C1.87306 22.0095 2.15811 19.0113 3.09013 16.1307L3.33782 15.365L4.22004 17.1692C4.70527 18.1616 7.34727 23.5971 10.0911 29.2484Z" fill="#001E50"/>
</svg>
