<svg width="64" height="33" viewBox="0 0 64 33" fill="none" xmlns="http://www.w3.org/2000/svg">
<path fill-rule="evenodd" clip-rule="evenodd" d="M29.3467 0.0337901C29.3217 0.058626 28.7677 0.103866 28.1157 0.134426C26.978 0.187699 24.2865 0.474003 23.2374 0.653394C21.3885 0.969521 20.9096 1.05769 20.1371 1.22407C13.8229 2.58404 8.66243 4.82804 5.00057 7.80612C4.02098 8.60272 3.60399 9.00369 2.84352 9.8796C1.07646 11.9149 0.145379 14.0329 0.0133444 16.3171C-0.215254 20.2734 2.50231 24.2672 7.46254 27.2645C11.2554 29.5564 15.8182 31.1672 21.2769 32.1411C24.5437 32.724 27.61 32.9873 31.2616 32.9986C34.1563 33.0075 34.8446 32.9786 37.5077 32.7359C39.7663 32.53 43.4793 31.9262 45.1185 31.4981C45.2958 31.4518 45.7895 31.3233 46.2158 31.2126C48.0719 30.7304 49.7485 30.1762 51.5501 29.4494C60.9488 25.658 65.5456 19.5287 63.5343 13.47C62.4822 10.3009 59.4149 7.1807 55.128 4.91907C52.1662 3.35644 48.9914 2.22987 44.848 1.27143C43.7219 1.01088 40.8613 0.52386 39.8785 0.425255C39.5776 0.395064 38.8185 0.307723 38.1916 0.231C37.0955 0.0969415 29.4552 -0.0734011 29.3467 0.0337901ZM36.8694 2.50491C41.5526 2.78946 48.7248 4.50748 49.3659 5.49823C49.4971 5.7008 49.4972 5.74678 49.3677 6.00049C49.1711 6.38549 48.8958 6.58123 46.8267 7.80769C42.7151 10.2449 37.895 12.4081 33.8603 13.6269C31.2623 14.4116 28.7909 14.6518 27.5231 14.2425C25.7082 13.6567 25.1639 12.4634 25.5589 9.93619C25.8868 7.83825 26.6919 5.98101 27.8613 4.62473C29.2273 3.04041 30.5348 2.46106 32.8416 2.41766C33.3495 2.40806 33.7802 2.38498 33.7987 2.36633C33.8334 2.33125 34.5264 2.36245 36.8694 2.50491ZM21.39 3.9995C21.4532 4.05258 21.5049 4.13475 21.5049 4.18212C21.5049 4.34683 20.7334 5.42188 19.4957 6.98174C18.0536 8.7991 17.857 9.07395 16.3572 11.3673C14.7161 13.8769 13.6117 15.7883 12.5358 17.9814C11.7486 19.5864 11.2325 20.8042 10.384 23.0599C10.0505 23.9463 9.67549 24.5046 9.27164 24.7161C8.58 25.0782 7.37874 24.4233 5.86682 22.8594C3.86788 20.792 2.88975 18.8937 2.75206 16.8145C2.58811 14.3407 4.18702 11.6742 7.21406 9.373C9.20644 7.8582 11.5191 6.6225 14.3014 5.58576C17.1913 4.50886 18.7334 4.0211 19.6812 3.88409C20.274 3.79832 21.2272 3.86276 21.39 3.9995ZM55.5843 8.35824C56.5331 8.69717 58.1485 9.9169 58.9582 10.9056C61.165 13.6002 61.7409 16.6681 60.5424 19.3445C59.0532 22.6698 54.8728 25.6981 48.9231 27.7616C46.9412 28.449 43.4941 29.2823 43.1639 29.154C43.0871 29.1242 43.0247 29.005 43.0251 28.8891C43.0259 28.6647 43.3482 28.1819 44.8078 26.2189C45.7561 24.9437 45.9429 24.6664 47.0072 22.9542C48.935 19.853 51.6467 14.8565 52.6076 12.6353C53.3008 11.0328 54.5194 8.6439 54.7497 8.43588C55.0193 8.19233 55.0991 8.18494 55.5843 8.35824ZM36.8423 19.1146C37.4864 19.3657 38.1704 19.9759 38.4553 20.5536C38.7076 21.0652 38.8219 22.1139 38.7167 22.9542C38.4816 24.8352 37.2064 27.3203 35.684 28.8644C34.3222 30.2457 33.4408 30.526 30.4865 30.5173C26.1785 30.5045 19.433 29.4559 15.9056 28.2506C14.9051 27.9088 14.7889 27.8492 14.665 27.6146C14.5144 27.3297 14.6683 27.1417 15.7389 26.3024C19.8184 23.1041 25.9479 20.3421 31.3888 19.2505C33.1019 18.9067 33.6125 18.8558 35.0457 18.8854C36.0994 18.9072 36.4131 18.9472 36.8423 19.1146Z" fill="#003082"/>
</svg>
