<svg width="86" height="19" viewBox="0 0 86 19" fill="none" xmlns="http://www.w3.org/2000/svg">
<path fill-rule="evenodd" clip-rule="evenodd" d="M5.09499 2.09161C3.05404 3.24203 1.30031 4.23894 1.19788 4.30699C0.439765 4.81068 0.107817 5.38824 0.0246433 6.34824C0.00350655 6.59239 -0.00398693 8.48786 0.00198391 12.0939L0.0108505 17.4752L0.0769474 17.6574C0.143791 17.8416 0.27724 18.064 0.394597 18.1869C0.506759 18.3043 0.80751 18.47 1.02464 18.5342L1.23487 18.5963H5.89213H10.5494L10.7931 18.5352C10.9272 18.5016 11.1359 18.4311 11.2568 18.3786C11.3778 18.3262 13.6126 17.0785 16.2231 15.6061C18.8335 14.1337 21.0121 12.9082 21.0645 12.8828C21.1168 12.8574 21.1833 12.8366 21.2124 12.8366C21.2425 12.8366 22.5252 14.0172 24.2067 15.5927C26.9602 18.1724 27.1602 18.3535 27.3344 18.4248C27.7698 18.6029 27.4855 18.5928 32.3877 18.6036C35.5534 18.6106 36.8833 18.6045 36.9624 18.5829C37.1005 18.5449 37.1461 18.475 37.1033 18.3669C37.0855 18.3219 35.0302 16.3704 32.3266 13.8315C28.3676 10.1135 27.5812 9.36246 27.5812 9.29946C27.5812 9.24699 27.6108 9.20299 27.6782 9.15537C27.7316 9.11767 30.6905 7.44314 34.2536 5.43415C38.2518 3.17984 40.7678 1.77742 40.8255 1.77092C40.8819 1.76456 40.9293 1.77532 40.9449 1.79808C40.9593 1.81904 40.9774 5.32184 40.9857 9.68352L41.0007 17.5312L41.068 17.6971C41.2652 18.1834 41.6868 18.5059 42.2247 18.5822C42.3681 18.6025 44.5507 18.6094 49.1807 18.6041L55.9278 18.5963L56.1611 18.5339C56.2894 18.4996 56.4984 18.4235 56.6254 18.3649C56.7524 18.3063 61.317 15.5383 66.769 12.2138C72.2209 8.88942 76.7159 6.16135 76.7577 6.15149C76.8165 6.13764 76.8449 6.14832 76.8821 6.19807C76.926 6.25698 76.9302 6.80955 76.9302 12.5304C76.9302 17.0162 76.9396 18.8233 76.9631 18.8866C76.9983 18.9815 77.0895 19.0213 77.198 18.9889C77.2691 18.9678 84.5168 14.8829 84.7964 14.7063C85.0737 14.5314 85.5005 14.1149 85.6338 13.8892C85.7624 13.6716 85.8658 13.4199 85.939 13.1461C85.9836 12.9796 85.989 12.432 85.9976 7.17505C86.0042 3.09609 85.9975 1.34417 85.9747 1.24109C85.8963 0.886456 85.5885 0.505645 85.2595 0.356286C84.889 0.188009 85.0404 0.194007 81.4047 0.202892L78.0796 0.211019L77.8557 0.275595C77.7325 0.311106 77.531 0.387705 77.4079 0.445806C77.2847 0.503908 71.1049 4.2582 63.6749 8.78863C53.4963 14.9951 50.1441 17.0259 50.0776 17.0263C50.0133 17.0266 49.979 17.0078 49.9512 16.9567C49.9205 16.9003 49.9129 15.3693 49.9122 9.12297C49.9114 0.663945 49.9233 1.24543 49.7442 0.900554C49.6397 0.699344 49.3769 0.452085 49.1658 0.356398C48.7883 0.18529 49.2888 0.196165 41.8079 0.196417C37.281 0.196557 34.9045 0.206338 34.7761 0.225369C34.5163 0.263851 34.3282 0.322317 34.0596 0.448048C33.9364 0.505673 28.341 3.65261 21.6253 7.44117C14.9096 11.2298 9.37053 14.3494 9.31629 14.3738C9.24308 14.4066 9.2046 14.4103 9.16702 14.388C9.1197 14.36 9.1154 13.8933 9.10146 7.238C9.08689 0.286132 9.08519 0.116595 9.02966 0.0589983C8.99768 0.0258137 8.93624 0 8.88931 0C8.83184 0 7.65075 0.65108 5.09499 2.09161Z" fill="#C41230"/>
</svg>
