<svg width="53" height="45" viewBox="0 0 53 45" fill="none" xmlns="http://www.w3.org/2000/svg">
<path fill-rule="evenodd" clip-rule="evenodd" d="M24.8564 0.0362584C18.449 0.557172 12.566 3.83418 8.74304 9.01197C7.98449 10.0394 7.32104 11.1413 6.62979 12.5219C5.58519 14.6081 5.49268 14.6721 3.1251 14.9466C1.3705 15.1501 1.55713 15.0802 1.55713 15.5331V15.9134L4.56682 15.8982L7.57658 15.883L7.9293 14.9748C9.54784 10.807 12.4102 7.37756 16.2057 5.059C18.7227 3.52134 21.457 2.60456 24.568 2.25509C25.4915 2.15132 27.6718 2.16702 28.6915 2.28474C31.0992 2.56272 33.1974 3.18822 35.3814 4.27898C36.8614 5.01816 37.8737 5.67238 39.1869 6.73823C39.9529 7.35999 41.3739 8.80548 42.0397 9.64034C43.2612 11.1719 44.4878 13.3313 45.1531 15.1213L45.4362 15.883H48.4539H51.4717L51.4889 15.5161C51.5011 15.2551 51.4845 15.1415 51.4312 15.1229C51.39 15.1085 50.7789 15.0294 50.0731 14.9472C48.5753 14.7728 48.288 14.7176 47.8896 14.5282C47.3863 14.2888 47.0882 13.8981 46.487 12.6896C45.8622 11.4337 45.5383 10.8593 44.9508 9.9649C42.8515 6.76882 39.8829 4.12405 36.4135 2.35869C34.1235 1.19346 31.6245 0.440333 28.9799 0.118351C28.0727 0.00789817 25.7694 -0.0379821 24.8564 0.0362584ZM0 22.5043V25.6392H0.692057H1.38411V23.3103V20.9814L3.67684 23.3103L5.96951 25.6392H6.81993H7.67029V22.5043V19.3695H6.97824H6.28618V21.6691V23.9687L4.02229 21.6691L1.75846 19.3695H0.8792H0V22.5043ZM10.6692 22.5043V25.6392H11.3613H12.0533V22.5043V19.3695H11.3613H10.6692V22.5043ZM16.1464 19.4491C14.962 19.7083 14.3751 20.9726 14.917 22.0972C15.1038 22.4846 15.3619 22.73 15.7993 22.9362L16.1192 23.0869L18.426 23.1083C20.9878 23.1321 20.9373 23.1241 21.0543 23.5211C21.1098 23.7093 21.1049 23.7817 21.0251 23.9527C20.9723 24.0656 20.8643 24.1881 20.7851 24.2248C20.6834 24.2718 19.7911 24.2915 17.7582 24.2915H14.8754L14.8917 24.9507L14.9081 25.6099L17.6186 25.6262C20.4697 25.6433 21.1224 25.6064 21.5075 25.4069C21.8377 25.2356 22.1371 24.9097 22.3119 24.5309C22.4415 24.2502 22.4624 24.1285 22.4586 23.6762C22.4552 23.2754 22.4254 23.0841 22.3345 22.8792C22.0756 22.2957 21.6141 21.9363 20.9924 21.8343C20.7807 21.7995 19.7091 21.7726 18.5302 21.7724L16.4428 21.7719L16.2822 21.6316C16.0568 21.4345 16.0558 21.0772 16.2803 20.849L16.4389 20.6879L19.2635 20.6711L22.0881 20.6544V20.0119V19.3695L19.2767 19.3744C17.3359 19.3778 16.3664 19.4009 16.1464 19.4491ZM26.5134 19.4302C25.6412 19.5793 25.0181 20.3045 25.0106 21.1791C25.003 22.0581 25.4239 22.7019 26.1941 22.9894C26.4003 23.0664 26.8324 23.0862 28.7453 23.1069L31.0481 23.1318L31.2107 23.297C31.4758 23.5664 31.3931 24.0662 31.0577 24.2215C30.9469 24.2728 30.1359 24.2915 28.0237 24.2915H25.1409L25.1572 24.9507L25.1736 25.6099H28.2603H31.3471L31.7326 25.417C32.4591 25.0535 32.7866 24.4615 32.7443 23.5883C32.7254 23.1993 32.6874 23.0261 32.5707 22.7973C32.38 22.4234 32.0568 22.1071 31.6904 21.9359C31.408 21.8039 31.3529 21.8006 29.0179 21.7719L26.6338 21.7426L26.5236 21.6042C26.4022 21.4517 26.3787 21.127 26.4758 20.9428C26.6191 20.6706 26.7532 20.6586 29.6412 20.6586H32.3536V20.014V19.3695L29.571 19.3764C28.0405 19.3801 26.6646 19.4044 26.5134 19.4302ZM36.2973 22.4562C35.2543 24.1539 34.3923 25.5646 34.3818 25.5911C34.3712 25.6176 34.7389 25.6392 35.1988 25.6392H36.0351L36.3715 25.0828L36.7078 24.5265H38.957H41.2062L41.5425 25.0828L41.8789 25.6392H42.717H43.5552L43.4731 25.5073C43.428 25.4348 42.5625 24.0242 41.5499 22.3725L39.7086 19.3695H38.9511H38.1937L36.2973 22.4562ZM45.3297 22.5043V25.6392H46.0218H46.7138V23.3103V20.9814L49.0065 23.3103L51.2992 25.6392H52.1496H53V22.5043V19.3695H52.3079H51.6159V21.6691V23.9687L49.352 21.6691L47.0882 19.3695H46.2089H45.3297V22.5043ZM39.727 22.0738C40.1124 22.7072 40.4276 23.2411 40.4276 23.2604C40.4276 23.2796 39.7659 23.2954 38.957 23.2954C38.1482 23.2954 37.4864 23.2792 37.4864 23.2595C37.4864 23.1714 38.9588 20.8427 38.9907 20.8802C39.0104 20.9033 39.3417 21.4405 39.727 22.0738ZM1.55713 29.4746V29.8527L1.74456 29.8851C1.84768 29.9029 2.48996 29.9836 3.17193 30.0644C5.48426 30.3382 5.58172 30.4051 6.59622 32.4139C7.29722 33.8018 7.77347 34.608 8.51299 35.659C10.5562 38.5626 13.3416 40.9708 16.5471 42.6051C18.9477 43.8291 21.335 44.5527 24.1066 44.8963C24.7201 44.9724 25.3653 45 26.5288 45C28.2247 45 29.0756 44.926 30.545 44.6507C36.1612 43.5983 41.2649 40.306 44.5825 35.5954C45.2528 34.6436 45.8611 33.6014 46.4914 32.3246C47.0829 31.1266 47.3867 30.7237 47.8851 30.4766C48.272 30.2848 48.5441 30.2325 50.1453 30.0424L51.4717 29.885V29.5053V29.1256L48.4568 29.1104C45.6238 29.0962 45.4397 29.1015 45.4063 29.1983C43.2447 35.4658 38.258 40.2498 32.0201 42.0403C30.0828 42.5965 28.7877 42.7717 26.5865 42.7754C24.8581 42.7784 24.3345 42.7394 23.0397 42.5111C17.5004 41.5345 12.5644 38.1779 9.57772 33.3566C8.90648 32.2731 8.115 30.62 7.72722 29.4918L7.59128 29.0963H4.57421H1.55713V29.4746Z" fill="black"/>
</svg>
