<svg width="34" height="45" viewBox="0 0 34 45" fill="none" xmlns="http://www.w3.org/2000/svg">
<path fill-rule="evenodd" clip-rule="evenodd" d="M11.756 0.215463C11.632 0.457331 9.75073 4.01404 3.99584 14.887C1.81144 19.0141 0.0133741 22.4188 0.000122759 22.4531C-0.0131286 22.4874 1.04815 24.5414 2.35856 27.0175C3.66892 29.4937 5.60514 33.1522 6.66124 35.1476C7.71728 37.143 9.31907 40.1702 10.2207 41.8746L11.86 44.9735H13.59H15.32L18.0135 39.8842C19.4949 37.0851 22.171 32.0286 23.9604 28.6475L27.2138 22.5L26.9332 21.9709C26.5575 21.2622 22.0215 12.692 20.6666 10.1306C20.0732 9.00885 19.569 8.08527 19.5462 8.07832C19.5062 8.06607 17.8972 11.067 17.8635 11.2168C17.8489 11.2811 19.3991 14.2411 22.8357 20.7112L23.7857 22.5L23.5413 22.9535C23.2984 23.4041 14.5968 39.853 13.9522 41.08C13.7669 41.4328 13.6038 41.7213 13.5899 41.7211C13.5759 41.7209 12.7837 40.2418 11.8295 38.4342C10.8753 36.6266 8.59335 32.3133 6.75857 28.849C4.92379 25.3848 3.42227 22.5277 3.42181 22.5C3.42136 22.4723 3.86657 21.6106 4.41115 20.5852C4.95577 19.5598 7.56583 14.628 10.2113 9.62561C12.8567 4.62324 15.0877 0.411376 15.1691 0.265852L15.317 0.00131016H13.5913H11.8657L11.756 0.215463ZM18.5599 0.214808C18.4995 0.332971 17.034 3.10527 15.3035 6.37552C13.5728 9.64577 11.4369 13.6819 10.5569 15.3448C9.67691 17.0076 8.4686 19.2894 7.87173 20.4154C7.27486 21.5415 6.78649 22.478 6.78649 22.4966C6.78649 22.5152 7.27481 23.4532 7.87163 24.5811C9.74946 28.13 13.6883 35.5723 14.0573 36.2688C14.2519 36.636 14.4262 36.9358 14.4447 36.9351C14.4884 36.9335 16.099 33.8845 16.1157 33.772C16.1227 33.7249 14.7946 31.1694 13.1645 28.0932L10.2006 22.5L10.4434 22.0465C10.7627 21.4502 18.9561 5.96102 19.7518 4.44945C20.0906 3.80583 20.3793 3.27937 20.3932 3.27962C20.4267 3.28012 30.5755 22.4772 30.5642 22.5185C30.5595 22.5361 28.7978 25.8723 26.6495 29.9324C24.5011 33.9925 21.8923 38.9243 20.852 40.892C19.8118 42.8597 18.8967 44.5889 18.8184 44.7348L18.6761 45L20.3997 44.9867L22.1235 44.9735L25.3364 38.9016C27.1035 35.5621 29.7758 30.5124 31.2747 27.68C32.7736 24.8477 34 22.5156 34 22.4977C34 22.4797 33.7514 21.9967 33.4475 21.4243C33.1435 20.852 32.187 19.0458 31.3218 17.4107C28.4237 11.934 26.5785 8.44686 26.2292 7.78641C26.0386 7.42613 25.0365 5.53276 24.0023 3.57893L22.1219 0.0265047L20.3958 0.0132523L18.6698 0L18.5599 0.214808Z" fill="black"/>
</svg>
