<svg width="60" height="39" viewBox="0 0 60 39" fill="none" xmlns="http://www.w3.org/2000/svg">
<path fill-rule="evenodd" clip-rule="evenodd" d="M26.2931 0.0663129C20.6674 0.578824 15.6442 1.95842 11.38 4.16202C8.8405 5.4743 6.91622 6.83161 5.10095 8.59067C2.40351 11.2047 0.894347 13.7936 0.215619 16.9715C-0.0743307 18.3288 -0.071435 20.5948 0.221784 21.9733C0.519954 23.3744 0.807381 24.1856 1.49377 25.5628C3.6924 29.9744 8.19876 33.674 14.3831 36.1444C23.9673 39.9731 36.2073 39.9501 45.7987 36.0853C51.8864 33.6324 56.4981 29.7814 58.623 25.3764C59.6143 23.3215 59.9137 22.1205 59.9868 19.9073C60.0485 18.0382 59.9025 16.9727 59.3618 15.3439C56.7713 7.54113 47.4263 1.71256 35.0737 0.195163C33.6229 0.0168985 27.7765 -0.0688775 26.2931 0.0663129ZM33.3554 2.39383C40.5274 2.94764 45.9296 4.9093 47.2166 7.42738C47.4797 7.94232 47.5569 8.70209 47.4019 9.25432C46.8396 11.259 43.2187 13.1649 38.1282 14.1356C37.5733 14.2414 37.0843 14.3281 37.0416 14.3281C36.999 14.3281 36.8916 13.919 36.8031 13.419C35.9576 8.64307 34.1619 4.87816 32.0315 3.41521C30.5812 2.41928 28.8718 2.583 27.421 3.85677C25.6256 5.43309 24.0189 9.02282 23.2974 13.0694C23.1785 13.736 23.0716 14.2957 23.0597 14.313C23.0181 14.3739 20.9108 13.9437 19.6716 13.6213C16.0276 12.6735 13.5127 11.2103 12.7792 9.61131C12.1906 8.32803 12.6769 7.03869 14.1745 5.91222C15.0491 5.25436 15.6446 4.92748 16.9052 4.41338C19.3589 3.41269 22.7742 2.69591 26.4799 2.40399C27.905 2.29173 31.9558 2.28567 33.3554 2.39383ZM30.608 7.4451C31.6722 7.76331 32.8548 9.55136 33.5233 11.8528C33.779 12.7332 34.175 14.6035 34.1179 14.6606C34.0976 14.6808 33.1695 14.7434 32.0552 14.7997C30.153 14.896 26.0757 14.7948 25.9284 14.6478C25.9011 14.6205 25.9773 14.1075 26.0976 13.5075C26.7141 10.4361 27.9103 8.15266 29.2355 7.51838C29.6666 7.31205 30.0879 7.28958 30.608 7.4451ZM7.75412 11.3196C8.08424 12.1824 8.58324 12.8922 9.51689 13.827C11.4044 15.7171 14.3743 17.2643 18.1695 18.3348C19.4281 18.6899 22.0827 19.2695 22.4501 19.2695C22.6086 19.2695 22.6252 19.4158 22.6788 21.2974C22.7624 24.2278 23.0292 26.3403 23.6297 28.8261C24.4598 32.2624 25.7426 34.8793 27.329 36.373L28 37.0048L27.6369 36.9523C27.4372 36.9235 26.9376 36.8741 26.5266 36.8425C25.4524 36.7599 23.425 36.4462 22.2308 36.1779C16.9196 34.9848 12.4315 32.7264 9.14212 29.5917C6.57172 27.1422 4.98848 24.4462 4.32274 21.3848C4.0255 20.0176 4.02887 17.5043 4.33003 16.1035C4.75673 14.1182 5.73839 11.9872 6.986 10.3379L7.37347 9.82566L7.47874 10.3504C7.53666 10.6389 7.66062 11.0751 7.75412 11.3196ZM53.383 10.8456C56.5406 15.5587 56.8037 20.6676 54.1371 25.4844C51.1266 30.9221 44.2147 35.1425 36.0719 36.515C35.1687 36.6672 32.5671 36.9697 32.0528 36.9821C32.0097 36.9833 32.1792 36.8225 32.4294 36.6251C33.8645 35.4929 35.1785 33.122 36.0547 30.0842C36.8554 27.3087 37.2405 24.6725 37.3707 21.0783L37.4352 19.2974L38.3796 19.1329C41.2882 18.6262 44.4769 17.6133 46.7422 16.4765C49.0664 15.3101 50.9112 13.7775 51.7975 12.2769C52.1593 11.6643 52.5417 10.6637 52.5417 10.3295C52.5417 10.1437 52.6301 9.85279 52.6865 9.85279C52.7038 9.85279 53.0172 10.2996 53.383 10.8456ZM29.9828 19.7823C32.1406 19.7823 34.0217 19.75 34.163 19.7106L34.4199 19.6389V20.457C34.4199 23.073 33.6558 26.568 32.6482 28.5616C31.8429 30.1548 31.0237 30.8774 30.0308 30.8706C29.3643 30.866 28.8858 30.6164 28.2841 29.9592C26.8646 28.4091 25.85 24.9087 25.5827 20.6397L25.5196 19.6324L25.7896 19.7073C25.938 19.7485 27.825 19.7823 29.9828 19.7823Z" fill="#27282D"/>
</svg>
